# xmcd CD database file
#
# Track frame offsets:
#	150
#	13965
#	41780
#	57397
#	70710
#	82837
#	92147
#	152137
#	160687
#	173242
#	189650
#	228595
#	239205
#	251610
#	263410
#	285302
#	334470
#
# Disc length: 4611 seconds
#
# Revision: 1
# Processed by: cddbd v1.5.2PL0 Copyright (c) Steve Scherf et al.
# Submitted via: CDex 1.70beta2
#
DISCID=ec120111
DTITLE=Menphis Slim - Blue This Evening
DYEAR=1960
DGENRE=Blues
TTITLE0=Pinetop'sBlues
TTITLE1=Blue This Evening
TTITLE2=Caught The Old Coon at Last
TTITLE3=We're Just Two of the Same Old Kind
TTITLE4=Don't Think You're Smart
TTITLE5=I'm Going to Kansas City
TTITLE6=Got A Little Old Mama and Rock Me Baby and In the  Evening
TTITLE7=Memphis Slim USA
TTITLE8=Chicago Boogie
TTITLE9=Sad and Lonesome
TTITLE10=Memphis Woman and Bertha Mae
TTITLE11=Ain't Nobody's Business
TTITLE12=I Love You More and More
TTITLE13=Frisco Bay Blues
TTITLE14=Slow and Easy
TTITLE15=I Believe I'll Settle Down and Daring I Miss You and Roll'N Trumble
TTITLE16=Misery
EXTD=YEAR: 1960
EXTT0=
EXTT1=
EXTT2=
EXTT3=
EXTT4=
EXTT5=
EXTT6=
EXTT7=
EXTT8=
EXTT9=
EXTT10=
EXTT11=
EXTT12=
EXTT13=
EXTT14=
EXTT15=
EXTT16=
PLAYORDER=
